<svg xmlns="http://www.w3.org/2000/svg" viewBox="0 0 526.76 381.33"><defs><style>.a { fill: #535353; } .b { fill: #61b94c; }</style></defs><title>logo_desafio_latam</title><path class="a" d="M249.15 114.15v44.66l8.19 24.57 13.47 4.93-3.7-33.49 19.29-30.08 12.18-1.39 13.48-30.66-25.79-11-.24-.13-3.16-9.41-23.62-16.8-17.08-.43-4.38 3.54-8.24-6.23-.12-6.34-4.82-2.52 2.52-8-5.13-2.37-8.16 4.21-7.8-6.84 4.54-9.77-34.76-14.52h-1l17.42 32.16a4.06 4.06 0 0 0 1.85 1.52l24.62 11.11 16 17-8.67 21 11 20.87z"/><path class="b" d="M180.06 85c1.43-3.2-.54-7-.54-7-5.27-7.75-13.77-3.46-13.77-3.46l-58.75 21.92c-5.1 1.68-6.12 3.48-6.12 3.48a11.39 11.39 0 0 0-1.61 6.68 11.39 11.39 0 0 0 1.61 6.68s1 1.79 6.12 3.47l58.71 21.91s8.5 4.29 13.77-3.45c0 0 2-3.79.54-7 0 0-1.69-4.46-6.06-5.8l-42.12-15.82 42.16-15.81c4.37-1.35 6.06-5.8 6.06-5.8zm248.12 15.08s-1-1.8-6.12-3.48l-58.71-21.92s-8.5-4.29-13.77 3.45c0 0-2 3.79-.54 7 0 0 1.69 4.46 6.06 5.8l42.12 15.82-42.12 15.81c-4.37 1.35-6.06 5.81-6.06 5.81-1.43 3.2.54 7 .54 7 5.27 7.75 13.77 3.46 13.77 3.46l58.71-21.91c5.11-1.68 6.12-3.48 6.12-3.48a11.39 11.39 0 0 0 1.61-6.68 11.35 11.35 0 0 0-1.61-6.69z"/><path class="a" d="M69.57 349.45l-.73-.73s-1.46-1.41-3.53.5l-7.86 7.18h-29.28v-58.4s-1.35-3.36-4.29-3.36h-11.88s-3.59 1.15-3.59 3v73.16a3.9 3.9 0 0 0 4.21 4.43h51.68a7.19 7.19 0 0 0 3.81-1l11.39-10.71.56-.67s1.52-1.52-.45-3.59zm-57.48-63.8h44.16a7.37 7.37 0 0 0 2.91-1l12-11.95a2.93 2.93 0 0 0 1-1.81v-27.69a7.75 7.75 0 0 0-1.54-3.79l-12.07-12.2-.11-.11h-48.11s-1.56 0-1.56 1.24v54.79s.23 2.52 3.32 2.52zm3.81-52h39.72l8.4 8.46a4.36 4.36 0 0 1 1 2.86v24.3l-10.02 9.88h-39.1v-40.83zm448.1 51.05a2.26 2.26 0 0 0 1.9.87h37.45a2.27 2.27 0 0 0 1.91-.87l12.15-12a4.58 4.58 0 0 0 1-1.91v-29.6a1.74 1.74 0 0 0-.41-1.19l-13.2-12.88a3.75 3.75 0 0 0-2.3-.69h-35.79a3.72 3.72 0 0 0-2.29.69l-13.2 12.88a1.74 1.74 0 0 0-.38 1.15v29.57a4.44 4.44 0 0 0 1 1.91zm-6-41.7l10.21-10.06h32.79l10.23 10.06v26.8l-9.36 9.38h-34.54l-9.33-9.39zm-277.94 42.12a2.17 2.17 0 0 0 1.52.53h32.14a4.19 4.19 0 0 0 3.16-1.09l7.2-8.92c1.81-2.36 0-3.45 0-3.45l-41.49-34.48.12-.19 3-4.55h26.79l5 5.52a1.51 1.51 0 0 0 2.1.54l3.12-3.18c1.19-1.18-.65-2.9-.65-2.9l-1.62-1.66-4.3-4.15a2.91 2.91 0 0 0-2.15-.65h-29.75c-1.14-.16-2.92 1.24-2.92 1.24l-1.94 2.33-5.69 7.08a2.41 2.41 0 0 0-.09 2.9l41.39 33.89a1.54 1.54 0 0 1 .62 1.58l-2.93 3.64h-29l-.63-.65-5.58-5.13c-.79-.59-1.69.5-1.69.5l-2.83 3.06a1.48 1.48 0 0 0 0 1.63zm152.68.48h1.58s2.77 0 2.77-1.63v-24.22h34.91s1.31-.23 1.31-1.21v-4.66s-.32-1.24-1.24-1.24h-35v-19.06h32.63l2.91 2.9 1.12 1.21s1.08.88 1.88.08l3.45-3.56a.93.93 0 0 0 0-1.29l-6.14-5.8h-41.47s-1.44.13-1.44 1.35v55.53s.18 1.6 2.73 1.6zm95.83-1.67v-3.5a2.1 2.1 0 0 0-2-1.28h-10v-45.55h10.62s1.39-.44 1.39-1.34v-4.51a1.88 1.88 0 0 0-1.45-.65h-28.13a1.86 1.86 0 0 0-1.45.65v4.51c0 .9 1.38 1.34 1.38 1.34h10.63v45.55h-10a2.09 2.09 0 0 0-2 1.28v3.5c0 1.14 1.89 1.67 1.89 1.67h27.27s1.85-.53 1.85-1.67zm-63.64 13s-2.95-2.86-6.23-2.86h-27.15c-3.28 0-6.23 2.86-6.23 2.86l-19.65 19.69a7 7 0 0 0-1.7 3.7v52.57c0 1.63 2.31 2.24 2.31 2.24h15.48c1.79 0 2.21-2.35 2.21-2.35v-17h42.31v17s.42 2.35 2.21 2.35h15.51s2.31-.61 2.31-2.24v-52.57a7 7 0 0 0-1.7-3.7zm1.35 42h-42.28v-13.47l12.94-13.1h16.44l12.93 13.1zm-223.66-53.36a4 4 0 0 0 2.94-.95l5.49-5.32c1.77-1.71.46-2.67.46-2.67l-2.81-2.72a1.45 1.45 0 0 0-2.3 0l-4.86 5.19h-35.54v-20h34.61a2.39 2.39 0 0 0 2.22-1.55v-3.22a3.22 3.22 0 0 0-2.05-1.68h-34.73v-19.09h34.88l4.88 4.93c1.35 1.3 2.15.5 2.15.5l3.66-3.79c.38-.92-1-2-1-2l-5.55-5.48a1.36 1.36 0 0 0-1.26-.65h-42.6c-2.07 0-2.3 1.45-2.3 1.45v54.9c.28 2 2.67 2.13 2.67 2.13zm144.08-57.85a3.94 3.94 0 0 0-2.42-1.2h-18.86a3.9 3.9 0 0 0-2.41 1.2l-15.43 15.8a2 2 0 0 0-.73 1.4v38.32a2.34 2.34 0 0 0 2.58 2.36h2.42c1.79 0 2.18-2.3 2.18-2.3v-17l41.64.19v16.81s.39 2.29 2.19 2.29h2.41a2.33 2.33 0 0 0 2.58-2.35v-38.31a2 2 0 0 0-.73-1.41zm9 33.2l-41.7-.19v-14.8l12.63-13h16.39l12.62 13zm221.75 40.85l-10.51-9.77a1.56 1.56 0 0 0-2.31 0l-37.51 39.38-37.5-39.38a1.56 1.56 0 0 0-2.31 0l-10.48 9.81a3.38 3.38 0 0 0-.94 2.18v68.32a2.7 2.7 0 0 0 2.24 2.87h14.31a2.86 2.86 0 0 0 2.92-2.92v-46.88l30.26 32.67a1.22 1.22 0 0 0 1.07.62h.87a1.2 1.2 0 0 0 1.06-.62l30.27-32.67v46.84a2.86 2.86 0 0 0 2.92 2.92h14.3a2.71 2.71 0 0 0 2.25-2.87v-68.27a3.38 3.38 0 0 0-.94-2.23zm-235.25-4.43a5.25 5.25 0 0 0-3.81-1.68h-69.46a5.26 5.26 0 0 0-3.82 1.68l-8.64 8.58c-1.77 1.76-.44 3-.44 3l.61.61 11.22 11.67c1.71 1.71 3.42-.22 3.42-.22l6.57-6.93h15.84l-.07 58.73c0 1.63 2 2.33 2 2.33h16s2.05-.7 2.05-2.33l-.08-58.73h15.84l6.57 6.95s1.71 1.93 3.42.22l11.23-11.67.61-.61s1.32-1.26-.45-3zm-120.29-.41s-2.94-2.86-6.22-2.86h-27.19c-3.27 0-6.22 2.86-6.22 2.86l-19.65 19.69a7 7 0 0 0-1.7 3.7v52.57c0 1.63 2.3 2.24 2.3 2.24h15.49c1.79 0 2.21-2.35 2.21-2.35v-17h42.3v17s.42 2.35 2.22 2.35h15.48s2.3-.61 2.3-2.24v-52.57a6.87 6.87 0 0 0-1.7-3.7zm1.35 42h-42.3v-13.47l12.93-13.1h16.41l12.93 13.1z"/></svg>